# xmcd
# Track frame offsets:
# 150
# 17432
# 32997
# 52912
# 69200
# 89470
# 109072
# 123762
# 141082
# 157417
#
# Disc length: 2392 seconds
# Revision: 0
# Processed by: cddbd v1.5PL3 Copyright (c) Steve Scherf et al.
# Submitted via: VisiTrax 2.9.9.202 - For more info visit www.synapsa.com
#
DISCID=7e09560a
DTITLE=Mulberry Lane - Run Your Own Race
DYEAR=1999
DGENRE=
TTITLE0=Harmless
TTITLE1=Just One Breath
TTITLE2=The Why
TTITLE3=I Belive Tt`s Love
TTITLE4=Crisis line
TTITLE5=Jeremiah
TTITLE6=I Don´t Love You
TTITLE7=I Don`t Know How To Deal
TTITLE8=Just Another Friday
TTITLE9=Sister Care
EXTD=
EXTT0=
EXTT1=
EXTT2=
EXTT3=
EXTT4=
EXTT5=
EXTT6=
EXTT7=
EXTT8=
EXTT9=
PLAYORDER=
